<?xml version="1.0" standalone="no"?>
<!DOCTYPE svg PUBLIC "-//W3C//DTD SVG 20010904//EN"
 "http://www.w3.org/TR/2001/REC-SVG-20010904/DTD/svg10.dtd">
<svg version="1.0" xmlns="http://www.w3.org/2000/svg"
 width="677.000000pt" height="638.000000pt" viewBox="0 0 677.000000 638.000000"
 preserveAspectRatio="xMidYMid meet">

<g transform="translate(0.000000,638.000000) scale(0.100000,-0.100000)"
fill="#a9aaab" stroke="none">
<path d="M3055 6359 c-751 -77 -1436 -400 -1955 -919 -246 -246 -444 -521
-599 -830 -100 -200 -162 -363 -232 -605 -27 -93 -65 -210 -84 -260 -55 -139
-132 -384 -152 -482 -14 -71 -18 -137 -18 -338 1 -249 1 -251 38 -431 109
-529 206 -752 499 -1146 163 -219 308 -362 493 -488 85 -58 183 -137 253 -202
139 -133 181 -162 268 -188 38 -12 105 -33 149 -46 44 -14 145 -56 225 -94
314 -149 614 -243 947 -296 134 -22 641 -31 783 -15 602 70 1114 272 1598 630
147 109 428 381 549 531 109 135 253 352 339 510 37 69 92 163 122 210 99 153
162 261 218 372 216 430 294 807 265 1266 -13 213 -43 369 -110 570 -84 255
-172 430 -346 692 -255 384 -609 751 -930 965 -382 255 -1039 493 -1590 575
-162 24 -579 35 -730 19z m1295 -526 c108 -40 364 -160 410 -193 33 -24 37
-37 17 -65 -13 -17 -17 -16 -73 22 -112 76 -200 127 -354 205 -161 82 -161 90
0 31z m-2091 -460 c-25 -31 -70 -67 -132 -105 -125 -78 -88 -27 46 63 94 63
108 69 86 42z m1557 -277 c415 -63 650 -167 875 -387 104 -102 269 -312 255
-326 -9 -10 -81 42 -179 130 -127 114 -177 154 -287 230 -185 127 -439 245
-662 307 -62 18 -138 40 -168 50 -79 27 -32 25 166 -4z m-2446 -88 c-32 -54
-152 -292 -227 -453 -42 -89 -134 -207 -149 -192 -9 9 73 216 138 351 27 55
72 130 101 166 69 89 150 179 160 180 5 0 -5 -24 -23 -52z m2387 -573 c244
-65 416 -162 600 -338 65 -62 93 -97 114 -144 60 -131 128 -403 101 -403 -5 0
-15 21 -21 48 -7 26 -32 89 -56 139 -154 326 -401 548 -710 638 -78 22 -165
65 -165 80 0 11 50 4 137 -20z m-1401 -321 c-47 -58 -86 -100 -86 -92 0 23 98
165 133 192 57 45 40 9 -47 -100z m3344 -154 c60 -118 130 -374 130 -472 0
-44 -9 -30 -65 97 -26 61 -63 140 -81 177 -31 61 -34 76 -34 156 0 77 4 102
17 102 1 0 16 -27 33 -60z m-1571 -275 c19 -31 50 -98 70 -148 34 -88 35 -97
36 -222 0 -111 -3 -140 -24 -200 -51 -151 -103 -228 -260 -388 -143 -147 -419
-377 -451 -377 -7 0 -9 8 -4 23 4 12 10 40 13 61 6 38 9 41 66 64 162 65 326
195 425 339 35 49 71 122 103 202 26 69 58 151 70 181 17 44 21 76 20 155 0
108 -21 185 -67 256 -13 19 -40 69 -60 110 l-37 74 33 -37 c18 -20 48 -62 67
-93z m-852 -444 c-3 -75 -11 -156 -19 -181 -14 -43 -16 -45 -51 -44 -46 2
-104 44 -124 92 -21 51 -21 150 1 190 18 34 76 68 141 82 57 13 58 10 52 -139z
m383 79 c0 -11 -7 -20 -15 -20 -15 0 -21 21 -8 33 12 13 23 7 23 -13z m901
-373 c-28 -111 -116 -284 -194 -382 -52 -65 -81 -91 -157 -137 -51 -32 -96
-56 -98 -53 -3 2 44 55 103 117 187 195 266 320 331 522 27 82 29 87 32 53 2
-21 -6 -75 -17 -120z m809 -63 c-14 -133 -51 -316 -65 -321 -6 -2 -25 56 -43
129 l-33 131 23 32 c88 121 114 152 121 145 5 -4 4 -57 -3 -116z m-3600 -81
c12 -54 31 -129 42 -168 26 -94 134 -312 202 -410 30 -44 51 -82 45 -83 -12
-5 -108 49 -187 106 -72 51 -92 84 -116 189 -32 141 -42 463 -15 463 4 0 17
-44 29 -97z m841 -175 c8 -15 8 -18 0 -14 -6 4 -16 16 -22 28 -8 15 -8 18 0
14 6 -4 16 -16 22 -28z m-1832 -140 c12 -46 21 -98 21 -117 0 -132 263 -697
482 -1034 39 -59 68 -110 66 -113 -10 -9 -224 224 -286 311 -174 245 -271 506
-307 825 -17 153 -19 210 -7 210 5 0 19 -37 31 -82z m4202 -140 c0 -7 4 -49 9
-93 19 -181 -33 -295 -224 -494 -67 -70 -223 -198 -301 -248 -40 -26 -73 -36
-171 -52 -196 -34 -195 -35 -43 75 179 129 265 202 385 327 112 116 215 263
284 405 41 86 59 110 61 80z m-1631 -93 c0 -2 -22 -16 -50 -30 -183 -93 -376
-124 -467 -77 -24 12 -43 26 -43 31 0 4 57 13 128 20 70 7 186 22 257 35 138
25 175 29 175 21z m800 -356 c-59 -50 -228 -163 -358 -237 -149 -86 -300 -150
-448 -193 l-111 -31 -88 19 c-49 10 -90 23 -92 29 -10 30 29 47 202 89 289 70
501 148 749 276 162 83 202 97 146 48z m-2110 -853 c55 -38 136 -86 178 -107
89 -44 78 -50 -28 -14 -97 33 -153 67 -227 138 -60 57 -85 95 -44 66 11 -8 65
-45 121 -83z"/>
</g>
</svg>
