<?xml version="1.0" standalone="no"?>
<!DOCTYPE svg PUBLIC "-//W3C//DTD SVG 20010904//EN"
 "http://www.w3.org/TR/2001/REC-SVG-20010904/DTD/svg10.dtd">
<svg version="1.0" xmlns="http://www.w3.org/2000/svg"
 width="1488.000000pt" height="333.000000pt" viewBox="0 0 1488.000000 333.000000"
 preserveAspectRatio="xMidYMid meet">

<g transform="translate(0.000000,333.000000) scale(0.100000,-0.100000)"
fill="#a9aaab" stroke="none">
<path d="M9585 3311 c-77 -4 -152 -12 -166 -18 -37 -16 -87 -77 -99 -121 l-10
-39 -232 -7 c-237 -6 -507 -22 -966 -55 -217 -16 -302 -18 -547 -10 -159 4
-360 13 -445 19 -205 15 -1509 16 -1785 1 -400 -22 -520 -40 -610 -90 -39 -22
-77 -32 -170 -45 -146 -20 -185 -30 -220 -58 -27 -21 -30 -21 -209 -10 -107 7
-214 20 -263 32 -328 79 -797 134 -1297 151 -325 11 -1174 -3 -1299 -21 -80
-12 -99 -21 -147 -65 l-35 -33 -245 -11 c-560 -26 -534 -22 -584 -84 -28 -35
-31 -45 -31 -110 0 -59 4 -78 23 -105 35 -48 67 -60 188 -68 l109 -7 27 -38
c33 -46 58 -63 145 -98 37 -15 68 -32 70 -37 2 -5 -20 -15 -48 -21 -54 -13
-109 -49 -135 -87 -27 -42 -29 -117 -5 -171 11 -26 21 -49 21 -51 0 -2 -42
-23 -93 -48 -102 -49 -123 -67 -142 -123 -15 -42 -11 -41 -168 -63 -131 -18
-187 -65 -194 -162 -5 -62 24 -129 70 -162 26 -19 44 -21 200 -22 l172 -1 2
-59 c3 -58 2 -59 -35 -85 -58 -39 -76 -86 -68 -174 l7 -72 -32 -13 c-108 -45
-156 -158 -109 -256 34 -68 112 -112 246 -135 35 -6 66 -14 69 -18 2 -4 -28
-18 -67 -30 -82 -27 -150 -82 -169 -138 -28 -85 12 -173 100 -218 45 -23 49
-27 54 -71 9 -86 69 -138 170 -147 69 -6 143 -1 512 35 127 12 277 21 335 20
87 -1 111 2 142 18 28 14 67 22 141 26 56 3 126 13 156 22 42 12 56 13 59 4 8
-24 54 -73 82 -87 47 -24 155 -33 850 -67 140 -7 509 -13 820 -13 717 0 800
10 892 113 l38 42 612 0 c555 0 1017 8 1675 29 l232 7 43 30 43 31 240 -13
c499 -26 1021 -37 1465 -31 465 7 605 15 685 43 58 19 183 14 1005 -41 745
-50 980 -63 1400 -80 206 -9 458 -22 560 -30 102 -8 325 -20 495 -26 223 -8
318 -15 337 -25 56 -29 173 -36 682 -41 377 -4 533 -2 571 6 128 29 190 153
134 267 -24 50 -90 97 -161 115 -27 6 -48 15 -48 20 0 4 11 24 24 44 14 20 28
57 31 83 4 26 7 54 8 62 1 8 20 21 42 28 152 50 169 250 28 323 -28 15 -56 28
-64 31 -10 3 -7 14 11 44 48 76 16 219 -69 317 -31 35 -32 37 -16 66 14 27 21
31 59 31 90 0 153 40 182 117 31 79 -10 180 -93 233 -37 24 -49 39 -63 80 -10
28 -31 66 -49 84 -37 39 -39 52 -6 60 61 16 134 113 135 182 0 42 -46 130 -81
155 -37 26 -37 43 1 59 41 17 87 71 101 120 10 33 9 50 -4 100 -10 33 -17 72
-17 88 0 60 -32 126 -89 182 -69 67 -135 104 -237 130 -132 34 -224 23 -293
-36 l-40 -35 -283 26 c-156 14 -431 39 -613 56 -181 16 -593 59 -915 94 -783
86 -1215 124 -1635 145 -274 13 -929 20 -1100 11z m-367 -1027 c40 -5 53 -16
32 -29 -9 -5 -206 8 -315 22 -36 4 -44 8 -30 13 21 8 237 3 313 -6z m3867 -15
c149 -10 305 -22 348 -26 l77 -6 -6 -66 c-4 -36 -8 -68 -10 -69 -4 -6 -935
116 -942 123 -2 2 14 20 35 39 l38 36 95 -5 c52 -4 217 -15 365 -26z m-6049
-600 c12 -20 -13 -30 -72 -27 l-59 3 50 16 c62 21 72 22 81 8z m5844 -155
c183 -22 178 -37 -10 -29 -107 5 -162 12 -178 22 -31 19 -18 34 26 28 20 -3
93 -12 162 -21z m-4775 -44 c3 -5 -11 -20 -32 -33 -92 -59 -124 -146 -88 -246
l14 -41 -49 0 c-48 0 -50 1 -50 29 0 39 -18 90 -46 127 -21 29 -23 39 -17 98
l6 65 61 4 c133 7 195 7 201 -3z m-3457 -608 c45 -31 62 -35 207 -41 l140 -6
3 -38 c3 -35 -1 -43 -39 -78 -33 -31 -50 -39 -79 -39 -32 0 -39 4 -50 30 -18
44 -82 97 -139 114 -27 8 -88 22 -135 32 -116 24 -112 39 12 43 38 1 62 -5 80
-17z m6202 -192 c0 -13 -30 -13 -50 0 -11 7 -7 10 18 10 17 0 32 -4 32 -10z"/>
</g>
</svg>
