<?xml version="1.0" standalone="no"?>
<!DOCTYPE svg PUBLIC "-//W3C//DTD SVG 20010904//EN"
 "http://www.w3.org/TR/2001/REC-SVG-20010904/DTD/svg10.dtd">
<svg version="1.0" xmlns="http://www.w3.org/2000/svg"
 width="1640.000000pt" height="921.000000pt" viewBox="0 0 1640.000000 921.000000"
 preserveAspectRatio="xMidYMid meet">

<g transform="translate(0.000000,921.000000) scale(0.100000,-0.100000)"
fill="#949191" stroke="none">
<path d="M1058 8913 c-322 -320 -498 -503 -841 -876 l-218 -236 3 -52 3 -52
326 354 c314 341 808 847 1032 1058 l107 101 -56 0 -56 0 -300 -297z"/>
<path d="M2399 9038 c-97 -95 -220 -222 -274 -283 -165 -184 -238 -256 -545
-538 -162 -150 -428 -402 -590 -562 -248 -244 -814 -776 -951 -893 -37 -32
-39 -37 -39 -90 l0 -57 88 86 c48 47 233 220 412 384 179 164 456 427 615 585
160 157 418 404 575 547 157 144 337 319 400 390 63 70 220 235 349 366 l235
237 -50 0 -50 0 -175 -172z"/>
<path d="M3770 8977 c-390 -370 -634 -622 -1019 -1052 -159 -178 -598 -637
-1026 -1075 -303 -310 -452 -471 -705 -765 -336 -390 -399 -456 -833 -868
l-187 -179 0 -56 1 -57 26 32 c14 18 155 155 313 304 298 279 407 394 695 729
283 328 389 444 670 730 149 151 333 343 410 425 76 83 223 236 325 340 103
105 249 260 325 345 281 315 668 721 871 915 115 110 270 259 344 332 l135
133 -50 0 -50 -1 -245 -232z"/>
<path d="M4904 8666 c-400 -399 -596 -604 -750 -781 -114 -132 -298 -341 -409
-465 -110 -124 -272 -308 -360 -410 -245 -283 -396 -443 -790 -835 -227 -226
-419 -427 -515 -540 -102 -120 -353 -381 -754 -785 -585 -589 -824 -814 -1218
-1145 l-108 -90 0 -49 c0 -45 1 -47 17 -35 42 33 383 327 548 473 245 216
1358 1333 1544 1551 189 219 281 316 595 625 305 301 517 528 802 855 114 132
285 326 379 430 93 105 270 305 392 445 175 201 332 363 743 768 286 283 520
518 520 523 0 5 -21 8 -47 8 l-48 -1 -541 -542z"/>
<path d="M6529 9058 c-79 -84 -337 -349 -574 -589 -1206 -1221 -1383 -1411
-1766 -1894 -52 -66 -127 -154 -165 -195 -97 -105 -573 -662 -735 -860 -141
-173 -170 -204 -609 -660 -151 -157 -342 -360 -425 -450 -179 -198 -225 -245
-891 -896 -602 -589 -744 -723 -984 -929 -96 -82 -221 -192 -277 -243 l-103
-94 0 -56 0 -55 113 109 c61 61 204 189 317 286 113 96 264 231 337 299 289
272 1386 1355 1503 1485 160 177 301 325 635 670 158 164 338 362 435 479 201
245 610 724 736 861 50 56 136 158 190 225 272 344 452 547 784 884 151 154
358 368 459 475 100 107 317 328 480 490 164 162 409 411 545 553 l248 257
-55 0 -54 0 -144 -152z"/>
<path d="M7864 8927 c-154 -156 -326 -334 -383 -397 -58 -63 -200 -216 -316
-340 -274 -292 -345 -370 -686 -760 -360 -413 -526 -594 -791 -867 -311 -320
-712 -742 -818 -863 -51 -58 -191 -208 -310 -335 -119 -126 -275 -292 -346
-368 -71 -75 -194 -197 -274 -270 -423 -387 -507 -467 -644 -613 -83 -87 -256
-267 -386 -399 -130 -132 -274 -283 -320 -335 -46 -52 -167 -185 -270 -295
-103 -110 -228 -246 -278 -302 -68 -75 -135 -134 -255 -224 -182 -137 -269
-211 -571 -485 -290 -263 -459 -440 -691 -724 -117 -144 -201 -238 -366 -412
l-159 -166 0 -54 1 -53 105 110 c223 233 352 376 478 529 219 267 399 459 620
660 319 290 438 392 597 511 190 143 202 154 366 335 77 85 191 209 254 275
63 66 168 181 234 255 212 239 922 955 1185 1195 140 128 305 284 365 346 178
184 549 581 710 759 81 91 205 224 275 295 69 72 196 204 280 295 85 91 242
255 350 365 222 227 349 367 745 820 307 351 397 451 650 720 94 99 215 230
270 290 54 61 250 262 434 448 l335 337 -56 0 -55 0 -279 -283z"/>
<path d="M8985 8880 c-389 -356 -438 -405 -667 -670 -84 -96 -186 -213 -228
-260 -109 -123 -164 -189 -274 -330 -54 -69 -162 -197 -240 -285 -79 -88 -185
-207 -236 -265 -51 -58 -189 -206 -306 -330 -207 -219 -290 -314 -521 -591
-61 -74 -182 -215 -268 -314 -87 -99 -203 -236 -260 -305 -56 -69 -167 -200
-246 -291 -79 -91 -253 -305 -386 -475 -414 -529 -421 -537 -949 -1106 -315
-338 -490 -505 -770 -734 -213 -175 -249 -206 -554 -479 -129 -116 -271 -241
-315 -279 -230 -198 -450 -404 -624 -585 -107 -111 -260 -261 -340 -334 -80
-73 -204 -186 -276 -252 -71 -67 -285 -261 -475 -432 -190 -171 -401 -368
-470 -437 l-125 -126 52 0 c50 0 53 1 115 66 65 68 303 287 679 625 433 390
551 500 894 839 193 190 424 411 515 489 91 79 284 250 429 379 145 130 320
283 390 341 69 58 189 158 266 222 185 154 400 362 609 589 94 102 242 262
330 355 184 197 327 367 557 660 91 116 213 271 271 345 58 74 159 196 223
270 65 74 193 225 285 335 91 110 235 279 319 375 85 96 201 234 260 305 135
166 235 278 491 550 114 121 261 281 326 355 65 74 157 178 204 230 48 52 149
173 224 268 76 96 201 246 279 335 78 89 182 209 232 266 161 187 275 300 609
605 181 166 354 324 385 353 l56 52 -55 0 -55 0 -360 -329z"/>
<path d="M10888 8983 c-118 -126 -306 -323 -419 -438 -112 -116 -330 -352
-484 -525 -182 -205 -397 -432 -616 -650 -185 -184 -426 -434 -535 -555 -109
-121 -263 -287 -343 -370 -81 -82 -243 -251 -361 -374 -118 -123 -278 -279
-355 -345 -77 -67 -196 -172 -265 -235 -69 -62 -235 -206 -370 -320 -415 -349
-603 -523 -791 -731 -67 -74 -223 -236 -348 -360 -125 -124 -339 -349 -475
-500 -263 -290 -617 -649 -928 -939 -103 -96 -283 -276 -400 -399 -117 -124
-339 -343 -493 -486 -154 -144 -340 -319 -415 -390 -74 -71 -245 -227 -380
-346 -135 -119 -309 -278 -388 -353 -189 -181 -259 -242 -497 -434 -110 -89
-218 -178 -240 -197 l-40 -35 56 -1 c49 0 60 4 95 33 21 19 107 88 191 155
207 166 268 219 485 423 102 97 278 257 390 355 112 99 284 256 383 350 99 94
252 237 340 319 224 207 337 319 569 559 110 115 323 325 471 466 358 342 587
574 850 865 120 132 344 368 499 525 155 157 339 347 409 423 150 161 338 332
677 618 135 114 281 239 325 278 44 40 184 164 310 275 127 112 284 261 350
332 66 71 203 215 305 319 102 105 298 314 435 465 137 151 402 428 590 615
188 187 424 434 526 550 253 289 371 417 599 650 108 110 268 277 355 370 87
94 179 191 204 218 l45 47 -51 0 -50 0 -215 -227z"/>
<path d="M12415 9084 c-162 -155 -313 -289 -526 -465 -90 -75 -231 -198 -314
-274 -82 -76 -253 -230 -379 -343 -309 -277 -569 -533 -870 -857 -359 -386
-562 -591 -971 -981 -198 -188 -384 -370 -414 -404 -29 -34 -256 -267 -505
-518 -248 -251 -538 -552 -645 -667 -289 -313 -383 -406 -761 -759 -190 -178
-421 -398 -515 -491 -149 -147 -801 -752 -875 -812 -16 -13 -115 -116 -221
-230 -106 -115 -283 -300 -394 -413 -110 -113 -269 -282 -352 -375 -83 -94
-236 -253 -340 -355 -183 -180 -243 -231 -524 -449 -97 -76 -214 -185 -423
-395 l-289 -291 48 -3 49 -3 245 248 c239 242 271 270 633 555 190 149 420
378 738 733 74 83 227 245 340 360 113 116 275 284 360 375 85 90 308 303 495
474 187 170 444 412 570 536 191 187 640 610 838 789 27 25 164 169 306 320
363 390 479 512 771 801 141 140 340 342 440 449 101 106 317 319 480 474 342
324 549 533 843 847 381 407 719 743 997 991 102 90 246 220 320 289 167 154
304 273 480 417 145 118 360 315 505 462 l90 91 -50 0 -50 -1 -130 -125z"/>
<path d="M13905 9148 c-39 -35 -126 -114 -195 -177 -69 -63 -234 -201 -367
-308 -192 -153 -270 -224 -380 -341 -76 -81 -318 -329 -539 -552 -220 -223
-489 -499 -596 -615 -230 -246 -462 -477 -713 -706 -98 -90 -255 -237 -348
-327 -93 -89 -269 -246 -391 -348 -269 -227 -866 -773 -1111 -1019 -100 -99
-259 -270 -355 -380 -362 -415 -571 -637 -819 -868 -107 -100 -238 -223 -291
-272 -52 -50 -246 -227 -430 -395 -184 -168 -384 -352 -444 -410 -180 -173
-979 -1048 -1321 -1445 -127 -148 -319 -365 -426 -480 -162 -176 -379 -418
-437 -487 -14 -17 -12 -18 34 -18 l49 0 80 92 c44 51 157 175 250 277 229 247
351 385 517 581 127 149 424 480 863 960 270 296 495 519 856 849 915 836
1099 1018 1574 1566 195 225 411 442 775 779 450 415 494 455 700 627 102 84
272 237 379 339 106 102 260 246 341 320 259 238 445 420 642 630 106 113 375
390 599 615 223 226 468 478 544 560 170 186 220 232 465 427 107 85 244 199
304 254 60 54 159 143 220 197 170 151 160 137 96 137 -54 0 -57 -2 -125 -62z"/>
<path d="M15190 9067 c-186 -182 -327 -309 -493 -444 -154 -124 -1354 -1322
-1802 -1798 -333 -354 -1005 -1024 -1290 -1285 -341 -314 -454 -430 -705 -725
-304 -359 -396 -458 -610 -656 -96 -90 -314 -300 -485 -467 -170 -168 -411
-396 -535 -508 -291 -262 -382 -350 -646 -629 -120 -126 -369 -383 -554 -570
-357 -360 -669 -685 -965 -1005 -266 -287 -288 -311 -439 -485 -76 -88 -215
-235 -308 -327 l-169 -168 54 0 54 0 124 123 c68 67 203 212 299 322 347 396
993 1081 1375 1460 133 132 336 339 451 460 366 385 504 522 729 723 121 108
357 332 525 497 168 165 400 389 515 496 263 245 312 298 609 649 275 325 358
411 726 750 362 334 897 865 1228 1220 151 162 428 448 616 635 187 187 508
509 711 716 204 206 419 415 479 465 251 205 538 467 676 617 l72 77 -49 0
-48 -1 -145 -142z"/>
<path d="M16270 8887 c-69 -67 -195 -185 -280 -261 -85 -77 -247 -228 -360
-336 -432 -413 -554 -522 -838 -747 -154 -121 -259 -217 -477 -433 -154 -152
-395 -380 -535 -506 -533 -479 -805 -741 -1092 -1049 -97 -104 -236 -246 -309
-315 -73 -69 -232 -235 -353 -370 -121 -135 -400 -425 -621 -645 -221 -220
-522 -530 -670 -690 -420 -453 -556 -596 -910 -955 -474 -480 -503 -513 -936
-1061 -164 -207 -333 -392 -719 -783 -305 -310 -583 -612 -652 -709 l-19 -27
44 0 c45 0 46 1 133 102 157 183 273 307 619 658 430 437 494 509 847 960 179
228 291 352 628 695 378 384 564 580 1011 1060 179 193 430 451 558 575 224
217 545 551 741 770 51 58 222 236 379 395 157 160 351 359 429 443 165 175
491 484 942 892 173 157 425 395 560 530 184 184 286 278 410 375 287 224 451
368 810 714 124 119 297 282 385 361 88 79 215 197 283 261 l123 118 -3 50 -3
49 -125 -121z"/>
<path d="M15850 6969 c-412 -413 -597 -590 -760 -729 -346 -295 -471 -410
-710 -650 -521 -522 -974 -995 -1116 -1166 -220 -265 -392 -454 -793 -868
-107 -111 -251 -266 -321 -346 -70 -80 -287 -302 -482 -495 -195 -192 -440
-442 -545 -555 -297 -320 -562 -576 -953 -920 -581 -512 -672 -597 -928 -875
-96 -104 -214 -229 -261 -277 l-86 -88 51 0 50 0 100 103 c54 56 159 167 233
247 182 197 386 390 722 686 577 507 780 700 1119 1064 141 151 397 412 569
580 172 168 368 368 434 445 67 77 245 268 396 425 359 374 539 571 751 826
115 137 285 322 495 535 176 179 421 429 545 556 232 238 393 387 755 696 151
130 361 331 748 716 l538 537 -3 49 -3 50 -545 -546z"/>
<path d="M16300 5877 c-172 -168 -482 -448 -675 -610 -209 -177 -387 -351
-631 -617 -249 -273 -619 -691 -854 -965 -236 -277 -386 -431 -685 -702 -110
-99 -276 -258 -370 -353 -93 -95 -269 -263 -390 -373 -301 -276 -456 -432
-628 -632 -181 -211 -235 -268 -469 -486 -309 -289 -823 -786 -998 -965 l-165
-169 46 -3 46 -3 194 194 c209 208 753 731 1007 968 163 151 246 239 449 474
134 156 326 346 573 570 91 82 264 249 385 370 121 122 308 301 415 397 257
231 423 402 671 693 245 287 649 741 880 990 224 241 383 395 569 552 161 135
317 275 577 517 l152 141 1 53 c0 28 -1 52 -2 52 -2 0 -46 -42 -98 -93z"/>
<path d="M16280 4389 c-62 -68 -245 -259 -406 -424 -161 -165 -406 -428 -545
-585 -140 -157 -312 -341 -383 -410 -72 -69 -229 -222 -351 -340 -234 -228
-490 -458 -669 -599 -295 -233 -364 -291 -449 -375 -51 -51 -126 -134 -168
-186 -41 -52 -119 -150 -173 -218 -113 -143 -210 -241 -356 -361 -394 -324
-614 -508 -816 -684 l-232 -202 54 -3 53 -3 171 150 c93 82 299 256 457 387
587 485 576 474 800 760 221 282 300 360 613 604 281 219 422 345 894 800 260
250 400 395 609 630 150 168 387 422 527 565 140 143 308 317 373 387 l118
127 -3 52 -3 52 -115 -124z"/>
<path d="M16331 2958 c-335 -383 -813 -872 -1091 -1118 -282 -249 -686 -627
-1089 -1020 -273 -266 -402 -400 -515 -535 -82 -99 -172 -204 -200 -232 l-49
-53 50 0 c59 0 57 -2 263 245 212 254 974 993 1595 1546 243 217 538 512 839
839 278 302 268 288 264 350 l-3 51 -64 -73z"/>
<path d="M16125 1072 c-148 -146 -382 -369 -520 -497 -137 -128 -304 -290
-369 -361 -66 -71 -138 -148 -160 -171 l-40 -43 51 0 50 0 132 142 c73 79 208
212 299 297 216 198 285 265 585 559 l248 244 -3 47 -3 48 -270 -265z"/>
</g>
</svg>
