<?xml version="1.0" standalone="no"?>
<!DOCTYPE svg PUBLIC "-//W3C//DTD SVG 20010904//EN"
 "http://www.w3.org/TR/2001/REC-SVG-20010904/DTD/svg10.dtd">
<svg version="1.0" xmlns="http://www.w3.org/2000/svg"
 width="459.000000pt" height="461.000000pt" viewBox="0 0 459.000000 461.000000"
 preserveAspectRatio="xMidYMid meet">

<g transform="translate(0.000000,461.000000) scale(0.100000,-0.100000)"
fill="#000000" stroke="none">
<path d="M0 2305 l0 -2305 35 0 35 0 0 178 c0 97 5 184 10 192 6 10 10 -50 10
-177 l0 -193 123 0 124 0 6 107 c4 58 7 148 7 200 0 68 3 92 12 87 12 -7 5
-325 -8 -371 l-6 -23 235 0 234 0 6 48 c4 26 11 151 17 277 11 257 28 450 42
480 8 20 8 -6 -12 -380 -5 -99 -10 -235 -10 -302 l0 -123 60 0 60 0 1 148 c0
81 4 165 8 187 6 27 9 -20 10 -147 l1 -188 124 0 123 0 7 61 c3 34 6 119 7
188 0 69 5 135 10 146 6 13 8 -53 5 -187 l-5 -208 233 0 232 0 12 193 c7 105
12 233 12 282 0 50 7 142 15 206 8 63 19 205 25 315 17 299 31 304 24 9 -3
-137 -9 -311 -14 -384 -5 -74 -13 -244 -16 -378 l-7 -243 61 0 62 0 1 153 c0
83 4 175 9 202 7 48 7 46 9 -31 0 -44 4 -136 8 -202 l6 -122 239 0 c200 0 240
2 244 15 5 12 9 12 27 0 15 -10 49 -13 111 -12 l90 2 7 30 c11 44 29 319 29
443 0 59 7 163 15 232 8 69 20 208 26 310 6 102 14 214 18 250 13 100 13 -258
1 -525 -6 -121 -15 -318 -20 -437 -5 -119 -7 -237 -4 -262 l7 -46 58 0 59 0 1
198 c1 112 5 184 9 167 4 -16 8 -105 9 -197 l1 -168 245 0 c207 0 247 2 251
15 5 13 8 13 20 0 11 -11 38 -14 112 -12 l97 2 7 65 c3 36 11 178 18 315 7
138 18 293 26 345 l13 95 -4 -155 c-3 -85 -8 -271 -12 -412 l-6 -258 64 0 64
0 -3 179 c-2 99 1 195 7 213 7 24 9 -27 10 -179 l1 -213 246 0 c237 0 246 1
251 20 5 18 7 18 26 5 24 -17 73 -20 82 -5 4 7 14 5 28 -5 29 -20 60 -19 80 3
19 21 32 148 47 477 5 116 17 278 25 360 18 168 22 791 17 2553 -2 534 0 1024
4 1087 l7 115 -51 0 c-30 0 -54 -5 -59 -12 -4 -7 -13 -62 -19 -123 l-12 -110
1 123 2 122 -117 0 c-67 0 -119 -4 -123 -10 -3 -5 -21 -10 -40 -10 -45 0 -63
-8 -77 -34 -8 -14 -15 -119 -20 -311 -4 -159 -11 -308 -16 -330 -6 -25 -8 86
-4 300 4 314 6 342 23 361 11 11 19 23 19 27 0 4 -119 7 -265 7 l-264 0 -6
-32 c-3 -18 -10 -85 -15 -148 l-8 -115 1 148 2 147 -112 0 c-103 0 -113 -2
-123 -20 -9 -17 -17 -20 -45 -14 -29 5 -39 2 -65 -24 l-30 -30 0 -204 c0 -217
-15 -427 -32 -443 -6 -7 -8 26 -4 100 3 61 8 213 12 339 5 207 8 231 25 249
11 12 18 26 16 32 -2 6 -99 11 -279 13 l-275 2 -7 -52 c-3 -29 -6 -74 -6 -100
0 -27 -5 -48 -10 -48 -9 0 -6 98 5 173 l4 27 -119 0 c-107 0 -120 -2 -130 -19
-6 -13 -17 -17 -30 -14 -35 9 -69 -6 -87 -40 -14 -27 -18 -79 -24 -322 -4
-159 -11 -303 -17 -320 -6 -20 -7 86 -4 305 4 307 6 337 23 359 40 50 39 50
-238 50 -142 0 -264 -3 -272 -8 -8 -6 -17 -42 -23 -97 -5 -49 -13 -102 -18
-119 -7 -28 -8 -26 -8 15 -1 25 3 77 7 115 4 39 6 76 3 83 -3 8 -30 12 -96 11
-97 -2 -130 -13 -141 -50 -5 -16 -13 -20 -33 -16 -38 7 -78 -10 -92 -41 -9
-19 -16 -114 -21 -317 -4 -159 -12 -306 -17 -325 -6 -23 -8 83 -4 305 5 311 7
342 23 364 22 27 24 52 7 69 -16 16 -98 15 -117 -2 -9 -7 -39 -16 -67 -19 -46
-5 -53 -3 -57 14 -5 18 -15 19 -135 19 l-131 0 -11 -52 c-6 -29 -15 -109 -19
-178 l-8 -125 -2 130 c0 72 3 146 9 164 7 24 6 39 -1 48 -14 16 -91 17 -107 1
-9 -9 -15 -9 -24 0 -22 22 -60 13 -94 -23 -25 -27 -41 -35 -66 -35 -78 0 -87
-33 -88 -310 0 -223 -16 -410 -33 -389 -2 2 1 153 7 334 10 287 13 333 29 355
37 52 16 80 -60 80 -38 0 -55 -4 -59 -15 -4 -9 -20 -15 -43 -15 -20 0 -42 -4
-50 -9 -11 -7 -18 -4 -26 12 -9 19 -20 22 -83 25 l-72 3 0 -2306z m3814 2168
c-10 -143 -23 -157 -23 -27 -1 61 2 114 6 117 19 19 23 -2 17 -90z m-1059
-345 c-4 -238 -11 -494 -15 -568 -5 -83 -7 76 -5 410 2 494 6 590 23 590 3 0
2 -195 -3 -432z m-781 405 c-3 -10 -9 -63 -13 -118 l-8 -100 -2 118 c-1 94 2
117 13 117 9 0 12 -7 10 -17z m929 -55 c-3 -40 -9 -95 -13 -123 -6 -41 -8 -28
-9 66 0 64 2 119 6 122 17 18 21 1 16 -65z m-2780 -40 c-11 -152 -21 -173 -22
-47 -1 64 2 119 6 122 18 18 22 0 16 -75z m916 35 c-4 -27 -8 -76 -8 -110 -1
-34 -5 -65 -11 -68 -11 -7 -15 207 -3 218 3 4 12 7 18 7 9 0 10 -13 4 -47z
m772 -683 l-8 -215 -1 376 c-1 207 1 412 6 455 11 119 14 -350 3 -616z m2119
215 c-6 -176 -14 -322 -17 -325 -9 -8 5 654 14 676 7 17 8 17 12 -6 2 -14 -2
-169 -9 -345z m527 273 c-2 -18 -4 -6 -4 27 0 33 2 48 4 33 2 -15 2 -42 0 -60z
m-2372 -225 c-4 -164 -11 -316 -16 -338 -5 -24 -6 80 -4 260 5 280 10 375 23
375 2 0 1 -134 -3 -297z m930 -100 c-5 -179 -11 -273 -18 -273 -11 0 -4 413
10 570 8 80 8 82 11 30 2 -30 1 -178 -3 -327z m-1860 80 c-4 -153 -11 -305
-16 -338 -5 -37 -6 61 -3 255 4 292 8 360 22 360 2 0 1 -125 -3 -277z m-921
-123 c-6 -222 -10 -276 -17 -245 -7 27 -7 126 1 310 16 350 15 339 20 275 2
-30 0 -183 -4 -340z m2375 -387 c-1 -417 -5 -731 -9 -698 -16 130 -10 1455 6
1455 2 0 3 -341 3 -757z m-934 609 c-11 -12 -13 6 -7 73 l7 70 3 -69 c2 -37 0
-71 -3 -74z m1869 -647 c4 -450 3 -734 -3 -725 -19 32 -26 1491 -6 1468 1 -2
5 -336 9 -743z m914 -305 c0 -228 -4 -397 -8 -375 -12 64 -22 931 -13 1186 l8
234 6 -315 c4 -173 6 -502 7 -730z m-3694 270 c3 -415 2 -726 -3 -715 -19 44
-25 1475 -6 1453 1 -2 5 -334 9 -738z m914 -85 c-1 -352 -4 -617 -8 -590 -5
28 -8 340 -8 695 1 355 4 620 8 590 5 -30 8 -343 8 -695z m2511 278 c0 -142
-4 -230 -9 -218 -17 39 -11 455 6 455 2 0 4 -107 3 -237z m-1850 -15 c-1 -157
-4 -227 -10 -198 -15 85 -9 440 7 440 2 0 3 -109 3 -242z m931 2 l-6 -235 -2
231 c-1 127 1 234 5 237 3 4 7 6 8 5 0 -2 -2 -109 -5 -238z m-2780 -30 l-6
-225 -2 212 c-2 174 3 259 12 241 1 -2 -1 -104 -4 -228z m919 -7 c-1 -135 -4
-227 -9 -213 -16 49 -10 450 6 450 2 0 4 -107 3 -237z m1739 -633 c0 -206 -4
-355 -8 -330 -12 69 -24 950 -14 1006 13 72 22 -210 22 -676z m909 40 c0 -218
-3 -361 -7 -330 -5 30 -8 271 -7 535 0 327 3 432 7 330 4 -82 7 -323 7 -535z
m-1850 20 c0 -249 -3 -372 -8 -320 -4 47 -7 283 -6 525 0 279 3 396 7 320 4
-66 7 -302 7 -525z m-1840 -80 c0 -212 -3 -362 -7 -334 -12 82 -23 862 -14
955 l9 84 6 -160 c3 -88 6 -333 6 -545z m910 30 c0 -221 -3 -364 -7 -325 -4
39 -7 277 -7 530 0 307 3 415 8 325 3 -74 6 -313 6 -530z m2522 365 c0 -100
-3 -145 -9 -135 -6 9 -9 104 -8 225 1 154 3 190 8 135 4 -41 8 -142 9 -225z
m-1851 20 c0 -100 -3 -160 -8 -145 -4 14 -8 108 -8 210 0 124 3 172 9 145 4
-22 8 -116 7 -210z m931 27 c-1 -135 -4 -181 -9 -147 -12 76 -12 357 0 350 6
-4 9 -81 9 -203z m-2780 -14 c-1 -145 -4 -195 -9 -158 -16 110 -11 370 6 370
2 0 3 -96 3 -212z m919 -58 c1 -101 -3 -157 -8 -145 -5 11 -8 108 -8 215 0
131 3 179 8 145 5 -27 8 -124 8 -215z m1737 -745 c1 -392 -1 -619 -5 -535 -4
80 -10 399 -14 710 -5 436 -3 558 6 535 8 -22 12 -220 13 -710z m-931 -15 c3
-365 1 -597 -4 -535 -13 180 -22 1245 -10 1210 6 -19 12 -277 14 -675z m551
-345 c-8 -964 -27 -1619 -47 -1631 -8 -5 -7 205 9 1911 l7 700 18 -190 c16
-168 18 -261 13 -790z m1840 730 c15 -188 16 -297 11 -745 -10 -953 -31 -1580
-53 -1599 -3 -3 -3 138 1 313 3 176 6 761 6 1300 0 540 4 974 9 966 5 -8 16
-114 26 -235z m-914 7 c26 -334 10 -1761 -25 -2227 -12 -160 -13 -130 -15 520
-1 832 10 1953 20 1907 3 -18 13 -108 20 -200z m-1857 -637 c1 -793 -21 -1686
-44 -1750 -8 -23 -3 1720 7 2235 l7 355 15 -140 c11 -105 15 -282 15 -700z
m-924 605 c27 -335 11 -1776 -25 -2210 -13 -158 -14 -144 -9 325 2 270 4 852
5 1295 0 443 4 794 8 780 5 -14 14 -99 21 -190z m3287 -642 c-1 -62 -3 -12 -3
112 0 124 2 174 3 113 2 -62 2 -164 0 -225z m-1850 -10 c-1 -62 -3 -14 -3 107
0 121 2 172 3 113 2 -59 2 -158 0 -220z m941 95 l-1 -218 -8 205 c-8 193 -7
230 6 230 3 0 4 -98 3 -217z m-2781 -140 c-1 -65 -3 -14 -3 112 0 127 2 180 3
118 2 -62 2 -165 0 -230z m910 15 c-1 -62 -3 -14 -3 107 0 121 2 172 3 113 2
-59 2 -158 0 -220z m2912 -315 c0 -126 -4 -200 -9 -188 -17 38 -11 395 6 395
2 0 4 -93 3 -207z m-1852 -115 c-1 -57 -3 -11 -3 102 0 113 2 159 3 103 2 -57
2 -149 0 -205z m930 5 c-1 -54 -3 -10 -3 97 0 107 2 151 3 98 2 -54 2 -142 0
-195z m-1858 60 c-1 -140 -4 -192 -9 -158 -14 89 -9 365 6 365 2 0 3 -93 3
-207z m-909 -4 c0 -124 -3 -188 -10 -184 -6 4 -10 78 -10 191 0 116 4 184 10
184 6 0 10 -70 10 -191z m4215 -723 c-19 -345 -39 -407 -31 -96 3 118 10 244
16 280 5 36 13 184 17 330 l8 265 3 -250 c2 -141 -4 -372 -13 -529z m-910 13
c-9 -158 -20 -300 -25 -315 -14 -49 -11 292 4 442 8 77 18 249 23 384 l8 245
3 -235 c2 -133 -4 -360 -13 -521z m-940 -68 c-9 -146 -18 -267 -20 -270 -9 -8
-4 403 6 464 5 33 12 184 16 335 l8 275 3 -270 c2 -162 -4 -376 -13 -534z
m-1828 409 c-6 -358 -22 -658 -38 -693 -12 -28 -4 388 10 488 5 39 13 185 17
325 5 140 10 244 12 230 2 -14 2 -171 -1 -350z m898 -429 c-8 -151 -18 -277
-20 -280 -9 -8 -4 413 6 469 5 30 12 179 16 330 l8 275 3 -260 c2 -152 -4
-374 -13 -534z m2657 429 l-9 -85 -2 142 c0 78 2 150 7 160 11 28 14 -120 4
-217z m-1851 -71 c-12 -30 -15 163 -3 237 5 38 8 21 10 -82 1 -72 -2 -142 -7
-155z m936 39 c-1 -46 -3 -11 -3 77 0 88 2 125 3 83 2 -42 2 -114 0 -160z
m-2776 47 l-8 -160 -1 156 c-2 134 2 178 14 166 2 -1 -1 -74 -5 -162z m910
-100 c-7 -32 -9 -17 -10 81 -1 67 2 137 7 155 5 24 8 -1 10 -81 1 -64 -2 -133
-7 -155z m2246 -42 c-1 -54 -3 -12 -3 92 0 105 2 149 3 98 2 -51 2 -136 0
-190z m-907 90 c0 -124 -3 -174 -11 -166 -7 7 -8 64 -3 177 4 91 9 166 11 166
1 0 3 -80 3 -177z m-2783 -130 c-1 -54 -3 -12 -3 92 0 105 2 149 3 98 2 -51 2
-136 0 -190z m1840 24 c-1 -45 -3 -5 -3 88 0 94 2 130 3 82 2 -48 2 -125 0
-170z m-930 -29 c-1 -51 -3 -12 -3 87 0 99 2 141 3 93 2 -48 2 -129 0 -180z
m1180 20 c-2 -29 -3 -8 -3 47 0 55 1 79 3 53 2 -26 2 -71 0 -100z m1840 20
c-2 -24 -4 -5 -4 42 0 47 2 66 4 43 2 -24 2 -62 0 -85z m-910 -25 c-2 -27 -3
-5 -3 47 0 52 1 74 3 48 2 -27 2 -69 0 -95z m-1858 15 c0 -67 -3 -96 -9 -83
-15 34 -9 185 6 185 2 0 4 -46 3 -102z m-922 -51 c-2 -23 -3 -1 -3 48 0 50 1
68 3 42 2 -26 2 -67 0 -90z m3584 -487 c-6 -91 -14 -272 -18 -403 -3 -137 -10
-240 -16 -244 -6 -4 -8 90 -3 268 7 299 23 761 27 769 1 3 6 -47 11 -110 7
-78 6 -169 -1 -280z m-1842 155 c0 -71 -4 -186 -9 -255 -5 -69 -12 -228 -16
-355 -5 -126 -11 -216 -15 -200 -10 45 -9 358 1 450 5 44 13 193 17 330 7 260
21 279 22 30z m931 32 c0 -196 -28 -858 -36 -866 -6 -6 -1 364 12 816 4 122
11 220 15 217 5 -3 9 -78 9 -167z m-1868 -262 c-7 -115 -15 -309 -19 -430 -3
-120 -10 -210 -14 -200 -11 28 -10 363 0 466 5 47 13 198 18 335 8 248 8 249
17 144 6 -71 6 -173 -2 -315z m-912 212 c-1 -236 -26 -836 -35 -845 -7 -7 -3
278 11 805 4 128 11 230 15 227 5 -3 9 -87 9 -187z m1706 -114 c-4 -93 -10
-171 -14 -175 -8 -8 -4 283 4 320 12 60 16 6 10 -145z m1834 -148 c-8 -32 -9
-22 -5 54 3 52 6 131 7 175 2 49 4 27 5 -54 2 -75 -1 -154 -7 -175z m-909 0
c-8 -59 -9 -58 -10 41 0 56 2 137 7 180 l7 79 3 -120 c1 -66 -2 -147 -7 -180z
m-2780 -45 l-9 -55 -1 71 c0 39 2 120 7 180 l7 109 3 -125 c1 -69 -2 -150 -7
-180z m909 -11 c-8 -19 -9 -13 -5 31 3 30 6 105 7 165 2 106 3 105 5 -31 2
-84 -1 -151 -7 -165z m1447 -191 c-3 -8 -6 -5 -6 6 -1 11 2 17 5 13 3 -3 4
-12 1 -19z m1600 -183 c-4 -107 -11 -193 -17 -203 -9 -13 -10 -6 -6 32 3 27 6
118 6 202 0 110 3 154 12 154 8 0 10 -48 5 -185z m-2536 95 l-8 -65 -2 57 c0
31 2 64 6 74 11 30 13 2 4 -66z m684 -207 c-4 -62 -10 -113 -15 -113 -9 0 -3
294 8 360 6 39 7 33 10 -45 2 -49 0 -141 -3 -202z m941 103 c-4 -83 -11 -169
-16 -191 -7 -29 -8 -3 -5 90 3 72 5 166 5 210 1 64 3 76 12 61 8 -14 9 -66 4
-170z m-2539 107 c-2 -16 -4 -5 -4 22 0 28 2 40 4 28 2 -13 2 -35 0 -50z
m2780 30 c-3 -10 -5 -4 -5 12 0 17 2 24 5 18 2 -7 2 -21 0 -30z m910 -10 c-3
-10 -5 -2 -5 17 0 19 2 27 5 18 2 -10 2 -26 0 -35z m-1850 -55 c-2 -13 -4 -3
-4 22 0 25 2 35 4 23 2 -13 2 -33 0 -45z m930 -130 c-2 -24 -4 -7 -4 37 0 44
2 63 4 43 2 -21 2 -57 0 -80z m910 20 c-2 -18 -4 -6 -4 27 0 33 2 48 4 33 2
-15 2 -42 0 -60z m-3690 -55 c-2 -21 -4 -4 -4 37 0 41 2 58 4 38 2 -21 2 -55
0 -75z m910 15 c-2 -13 -4 -5 -4 17 -1 22 1 32 4 23 2 -10 2 -28 0 -40z"/>
</g>
</svg>
